<?xml version="1.0" encoding="utf-8"?>
<!-- Generator: Adobe Illustrator 15.0.0, SVG Export Plug-In . SVG Version: 6.00 Build 0)  -->
<!DOCTYPE svg PUBLIC "-//W3C//DTD SVG 1.1//EN" "http://www.w3.org/Graphics/SVG/1.1/DTD/svg11.dtd">
<svg version="1.1" id="Layer_1" xmlns="http://www.w3.org/2000/svg" xmlns:xlink="http://www.w3.org/1999/xlink" x="0px" y="0px"
	 width="215.43px" height="121.89px" viewBox="0 0 215.43 121.89" enable-background="new 0 0 215.43 121.89" xml:space="preserve">
<g>
	<path fill="#0091D2" d="M53.735,117.982l-2.051-8.084h1.104l0.96,4.09c0.239,1.008,0.455,2.016,0.6,2.795h0.023
		c0.132-0.804,0.384-1.763,0.66-2.807l1.079-4.078h1.092l0.983,4.103c0.228,0.959,0.443,1.919,0.563,2.771h0.023
		c0.168-0.888,0.396-1.787,0.648-2.795l1.067-4.078h1.067l-2.291,8.084h-1.092l-1.02-4.21c-0.251-1.031-0.419-1.822-0.527-2.639
		h-0.023c-0.133,0.804-0.324,1.596-0.624,2.639l-1.151,4.21H53.735z"/>
	<path fill="#0091D2" d="M69.308,113.856c0,2.771-1.69,4.258-3.754,4.258c-2.146,0-3.634-1.667-3.634-4.113
		c0-2.567,1.583-4.246,3.742-4.246C67.881,109.755,69.308,111.446,69.308,113.856z M63.024,113.977c0,1.739,0.936,3.286,2.591,3.286
		s2.591-1.523,2.591-3.358c0-1.619-0.84-3.298-2.579-3.298S63.024,112.214,63.024,113.977z"/>
	<path fill="#0091D2" d="M70.5,110.007c0.528-0.096,1.296-0.168,2.003-0.168c1.115,0,1.848,0.216,2.339,0.659
		c0.396,0.36,0.636,0.912,0.636,1.548c0,1.056-0.672,1.763-1.511,2.051v0.036c0.611,0.216,0.983,0.791,1.175,1.631
		c0.264,1.127,0.456,1.907,0.624,2.219h-1.079c-0.133-0.24-0.313-0.924-0.528-1.931c-0.239-1.115-0.684-1.535-1.631-1.571h-0.983
		v3.502H70.5V110.007z M71.543,113.688h1.067c1.115,0,1.823-0.611,1.823-1.535c0-1.043-0.756-1.499-1.859-1.499
		c-0.504,0-0.852,0.036-1.031,0.084V113.688z"/>
	<path fill="#0091D2" d="M76.788,109.898h1.044v3.898h0.036c0.216-0.312,0.432-0.6,0.636-0.863l2.471-3.035h1.295l-2.927,3.431
		l3.154,4.653h-1.235l-2.65-3.97l-0.779,0.888v3.082h-1.044V109.898z"/>
	<path fill="#0091D2" d="M87.911,114.36v0.768h-2.963v-0.768H87.911z"/>
	<path fill="#3D61AD" d="M98.204,114.433c-0.06-1.128-0.132-2.495-0.132-3.49h-0.024c-0.287,0.936-0.611,1.955-1.019,3.07
		l-1.428,3.922H94.81l-1.319-3.85c-0.384-1.151-0.696-2.184-0.924-3.143h-0.024c-0.023,1.008-0.084,2.351-0.155,3.574l-0.216,3.466
		h-0.996l0.564-8.084h1.331l1.379,3.91c0.336,0.995,0.6,1.883,0.815,2.723h0.024c0.216-0.815,0.504-1.703,0.863-2.723l1.439-3.91
		h1.331l0.504,8.084h-1.031L98.204,114.433z"/>
	<path fill="#3D61AD" d="M102.178,115.439l-0.84,2.543h-1.079l2.759-8.084h1.247l2.759,8.084h-1.115l-0.864-2.543H102.178z
		 M104.84,114.624l-0.803-2.326c-0.181-0.528-0.3-1.008-0.42-1.476h-0.024c-0.12,0.468-0.239,0.972-0.407,1.463l-0.792,2.339H104.84
		z"/>
	<path fill="#3D61AD" d="M108.046,117.982v-8.084h1.151l2.58,4.09c0.588,0.948,1.066,1.8,1.439,2.627l0.035-0.012
		c-0.096-1.08-0.119-2.063-0.119-3.322v-3.383h0.982v8.084h-1.055l-2.566-4.102c-0.564-0.899-1.104-1.823-1.5-2.698l-0.036,0.012
		c0.059,1.02,0.071,1.991,0.071,3.334v3.454H108.046z"/>
	<path fill="#3D61AD" d="M117.082,115.439l-0.84,2.543h-1.078l2.758-8.084h1.248l2.758,8.084h-1.115l-0.863-2.543H117.082z
		 M119.744,114.624l-0.803-2.326c-0.18-0.528-0.299-1.008-0.42-1.476h-0.023c-0.121,0.468-0.24,0.972-0.408,1.463l-0.791,2.339
		H119.744z"/>
	<path fill="#3D61AD" d="M129.115,117.623c-0.467,0.18-1.402,0.443-2.494,0.443c-1.223,0-2.23-0.312-3.021-1.067
		c-0.697-0.672-1.129-1.751-1.129-3.011c0-2.41,1.668-4.174,4.379-4.174c0.936,0,1.678,0.204,2.025,0.372l-0.264,0.852
		c-0.432-0.204-0.971-0.348-1.787-0.348c-1.967,0-3.25,1.224-3.25,3.25c0,2.051,1.225,3.263,3.119,3.263
		c0.684,0,1.15-0.097,1.391-0.216v-2.411h-1.631v-0.84h2.662V117.623z"/>
	<path fill="#3D61AD" d="M134.709,114.192h-3.131v2.914h3.502v0.876h-4.557v-8.084h4.377v0.876h-3.322v2.555h3.131V114.192z"/>
	<path fill="#3D61AD" d="M143.082,114.433c-0.059-1.128-0.131-2.495-0.131-3.49h-0.025c-0.287,0.936-0.611,1.955-1.018,3.07
		l-1.428,3.922h-0.791l-1.32-3.85c-0.383-1.151-0.695-2.184-0.924-3.143h-0.023c-0.023,1.008-0.084,2.351-0.156,3.574l-0.215,3.466
		h-0.996l0.564-8.084h1.33l1.379,3.91c0.336,0.995,0.6,1.883,0.816,2.723h0.023c0.217-0.815,0.504-1.703,0.863-2.723l1.439-3.91
		h1.332l0.504,8.084h-1.031L143.082,114.433z"/>
	<path fill="#3D61AD" d="M149.924,114.192h-3.129v2.914h3.502v0.876h-4.559v-8.084h4.379v0.876h-3.322v2.555h3.129V114.192z"/>
	<path fill="#3D61AD" d="M151.486,117.982v-8.084h1.15l2.58,4.09c0.588,0.948,1.066,1.8,1.439,2.627l0.035-0.012
		c-0.096-1.08-0.119-2.063-0.119-3.322v-3.383h0.982v8.084H156.5l-2.566-4.102c-0.564-0.899-1.104-1.823-1.5-2.698l-0.035,0.012
		c0.059,1.02,0.07,1.991,0.07,3.334v3.454H151.486z"/>
	<path fill="#3D61AD" d="M160.75,110.786h-2.459v-0.888h5.984v0.888h-2.471v7.196h-1.055V110.786z"/>
</g>
<g>
	<path fill="#3D61AD" d="M35.317,102.955l-4.104-16.178h2.208l1.92,8.185c0.48,2.017,0.912,4.033,1.2,5.593h0.048
		c0.265-1.608,0.769-3.528,1.32-5.616l2.16-8.161h2.185l1.968,8.209c0.456,1.92,0.888,3.841,1.128,5.545h0.048
		c0.336-1.776,0.792-3.577,1.297-5.593l2.136-8.161h2.136l-4.584,16.178h-2.185l-2.04-8.425c-0.504-2.064-0.84-3.648-1.056-5.28
		h-0.048c-0.265,1.608-0.648,3.192-1.248,5.28l-2.305,8.425H35.317z"/>
	<path fill="#3D61AD" d="M69.206,94.698c0,5.545-3.385,8.521-7.513,8.521c-4.297,0-7.272-3.336-7.272-8.232
		c0-5.137,3.168-8.497,7.488-8.497C66.35,86.489,69.206,89.874,69.206,94.698z M56.629,94.938c0,3.48,1.872,6.576,5.185,6.576
		s5.185-3.048,5.185-6.721c0-3.24-1.681-6.601-5.161-6.601C58.357,88.193,56.629,91.41,56.629,94.938z"/>
	<path fill="#3D61AD" d="M74.316,86.994c1.056-0.192,2.592-0.337,4.008-0.337c2.232,0,3.697,0.433,4.681,1.32
		c0.792,0.721,1.272,1.824,1.272,3.097c0,2.112-1.345,3.528-3.024,4.104v0.071c1.224,0.433,1.968,1.585,2.353,3.265
		c0.527,2.256,0.912,3.816,1.248,4.44h-2.16c-0.265-0.48-0.624-1.849-1.057-3.864c-0.479-2.232-1.368-3.072-3.264-3.145h-1.969
		v7.009h-2.088V86.994z M76.404,94.362h2.137c2.231,0,3.648-1.224,3.648-3.072c0-2.088-1.513-3-3.721-3
		c-1.008,0-1.704,0.071-2.064,0.168V94.362z"/>
	<path fill="#3D61AD" d="M89.628,86.777h2.088v7.801h0.072c0.432-0.624,0.864-1.2,1.272-1.728l4.944-6.073h2.592l-5.856,6.865
		l6.313,9.313h-2.472l-5.305-7.944l-1.561,1.775v6.169h-2.088V86.777z"/>
	<path fill="#0091D2" d="M103.932,101.731l8.953-13.13V88.53H104.7v-1.753h10.921v1.272l-8.929,13.081v0.072h9.049v1.752h-11.81
		V101.731z"/>
	<path fill="#0091D2" d="M134.533,94.698c0,5.545-3.385,8.521-7.513,8.521c-4.296,0-7.272-3.336-7.272-8.232
		c0-5.137,3.168-8.497,7.488-8.497C131.677,86.489,134.533,89.874,134.533,94.698z M121.956,94.938c0,3.48,1.872,6.576,5.185,6.576
		s5.185-3.048,5.185-6.721c0-3.24-1.681-6.601-5.161-6.601C123.685,88.193,121.956,91.41,121.956,94.938z"/>
	<path fill="#0091D2" d="M139.644,102.955V86.777h2.304l5.161,8.185c1.176,1.896,2.136,3.601,2.88,5.257l0.072-0.023
		c-0.192-2.161-0.24-4.129-0.24-6.649v-6.769h1.968v16.178h-2.111l-5.137-8.209c-1.128-1.8-2.208-3.648-3-5.4l-0.072,0.024
		c0.12,2.04,0.144,3.984,0.144,6.673v6.912H139.644z"/>
	<path fill="#0091D2" d="M166.188,95.37h-6.265v5.833h7.009v1.752h-9.121V86.777h8.761v1.753h-6.648v5.112h6.265V95.37z"/>
	<path fill="#3D61AD" d="M175.883,89.322h-0.048l-2.712,1.464l-0.408-1.608l3.408-1.824h1.801v15.602h-2.041V89.322z"/>
</g>
<g>
	<path fill="#D2D5D5" d="M120.063,36.912l44.338-23.204c2.011-1.052,1.771-4.016-0.385-4.714
		c-10.882-3.518-23.552-5.067-37.313-4.609c-0.667,0.021-1.302,0.306-1.767,0.783L97.898,33.014
		c-1.639,1.689-0.329,4.488,2.021,4.343c6.494-0.399,12.799-0.449,18.852-0.16C119.221,37.219,119.664,37.12,120.063,36.912"/>
	<path fill="#D2D5D5" d="M17.467,69.887c6.618-4.646,13.741-9.06,21.311-13.157c1.51-0.817,1.825-2.846,0.615-4.064l-8.344-8.418
		c-0.938-0.946-2.456-1.022-3.476-0.165c-8.321,6.992-15.848,14.356-22.496,21.922c-1.449,1.648-0.285,4.238,1.909,4.259
		l8.999,0.084C16.517,70.352,17.031,70.191,17.467,69.887"/>
	<path fill="#D2D5D5" d="M58.897,43.048c0.72,0.825,1.882,1.099,2.898,0.688c0.769-0.311,1.542-0.618,2.319-0.922
		c4.265-1.661,8.523-3.174,12.763-4.544c0.878-0.285,1.534-1.015,1.718-1.92l4.349-21.421c0.42-2.068-1.696-3.729-3.609-2.835
		c-7.065,3.303-14.131,7.063-21.123,11.282c-2.774,1.674-5.485,3.394-8.138,5.152c-1.289,0.854-1.518,2.655-0.502,3.82
		L58.897,43.048z"/>
	<path fill="#D2D5D5" d="M190.455,27.08l-41.536,15.641c-2.326,0.877-2.16,4.197,0.233,4.872
		c12.829,3.609,23.755,8.833,31.995,15.425c0.486,0.387,1.085,0.588,1.705,0.56l29.457-1.328c1.541-0.068,2.686-1.477,2.417-2.996
		c-0.455-2.579-1.129-5.118-2.04-7.604c-3.616-9.882-10.521-18.029-19.902-24.309C192.1,26.881,191.226,26.791,190.455,27.08"/>
	<path fill="#0091D2" d="M117.115,33.202l44.34-23.204c2.01-1.052,1.771-4.017-0.386-4.714c-10.883-3.517-23.552-5.066-37.313-4.609
		c-0.665,0.021-1.303,0.306-1.768,0.784L94.952,29.305c-1.64,1.688-0.329,4.487,2.019,4.343c6.496-0.4,12.799-0.451,18.852-0.16
		C116.272,33.509,116.716,33.41,117.115,33.202"/>
	<path fill="#0091D2" d="M14.049,66.605c6.619-4.646,13.741-9.061,21.311-13.156c1.509-0.818,1.826-2.847,0.617-4.065l-8.346-8.417
		c-0.938-0.947-2.455-1.022-3.476-0.165C15.833,47.791,8.308,55.158,1.658,62.723C0.21,64.37,1.375,66.96,3.569,66.981l8.998,0.083
		C13.1,67.07,13.614,66.91,14.049,66.605"/>
	<path fill="#3D61AD" d="M55.697,39.554c0.72,0.825,1.883,1.1,2.897,0.689c0.77-0.312,1.542-0.618,2.32-0.922
		c4.266-1.662,8.524-3.174,12.763-4.546c0.879-0.283,1.534-1.014,1.718-1.919l4.348-21.422c0.421-2.067-1.695-3.728-3.607-2.834
		c-7.066,3.303-14.132,7.063-21.124,11.283c-2.773,1.674-5.485,3.394-8.139,5.152c-1.287,0.854-1.516,2.654-0.501,3.819
		L55.697,39.554z"/>
	<path fill="#3D61AD" d="M187.981,23.039l-41.536,15.642c-2.327,0.875-2.161,4.197,0.232,4.872
		c12.829,3.608,23.757,8.832,31.998,15.423c0.483,0.388,1.084,0.588,1.703,0.561l29.456-1.328c1.542-0.069,2.688-1.478,2.419-2.995
		c-0.456-2.58-1.131-5.118-2.04-7.605c-3.616-9.883-10.521-18.028-19.902-24.31C189.625,22.84,188.754,22.748,187.981,23.039"/>
	<path fill="#0091D2" d="M86.994,76.646c-6.12,4.607-13.847,4.67-17.258,0.14c-3.41-4.53-1.214-11.938,4.904-16.546
		c6.121-4.607,13.848-4.67,17.259-0.14C95.31,64.63,93.113,72.037,86.994,76.646"/>
	<path fill="#FFFFFF" d="M84.968,73.954c-4.5,3.388-10.181,3.434-12.688,0.103c-2.509-3.33-0.894-8.777,3.605-12.166
		c4.5-3.387,10.181-3.433,12.688-0.102S89.467,70.566,84.968,73.954"/>
	<path fill="#656565" d="M159.22,27.592L80.812,72.856c-2.407,1.39-5.485,0.564-6.875-1.843s-0.565-5.485,1.842-6.875
		c0.162-0.094,0.332-0.179,0.499-0.252L159.22,27.592z"/>
	<path fill="#656565" d="M65.715,39.438L82.6,66.562c1.316,2.115,0.669,4.897-1.447,6.214c-2.114,1.317-4.896,0.67-6.213-1.445
		c-0.225-0.361-0.397-0.764-0.51-1.153L65.715,39.438z"/>
</g>
</svg>
